<svg width="45" height="45" viewBox="0 0 45 45" fill="none" xmlns="http://www.w3.org/2000/svg">
<circle cx="22" cy="23" r="19.5" stroke="#DE0202" stroke-width="3"/>
<mask id="path-2-outside-1_13239_2181" maskUnits="userSpaceOnUse" x="10" y="11" width="24" height="24" fill="black">
<rect fill="white" x="10" y="11" width="24" height="24"/>
<path d="M31.08 34V15.67L22.71 30.01H21.69L13.32 15.67V34H11.79V12.7H13.32L22.2 27.94L31.08 12.7H32.61V34H31.08Z"/>
</mask>
<path d="M31.08 34V15.67L22.71 30.01H21.69L13.32 15.67V34H11.79V12.7H13.32L22.2 27.94L31.08 12.7H32.61V34H31.08Z" fill="#DE0202"/>
<path d="M31.08 34H30.08V35H31.08V34ZM31.08 15.67H32.08V11.973L30.2164 15.1659L31.08 15.67ZM22.71 30.01V31.01H23.2842L23.5736 30.5141L22.71 30.01ZM21.69 30.01L20.8264 30.5141L21.1158 31.01H21.69V30.01ZM13.32 15.67L14.1836 15.1659L12.32 11.973V15.67H13.32ZM13.32 34V35H14.32V34H13.32ZM11.79 34H10.79V35H11.79V34ZM11.79 12.7V11.7H10.79V12.7H11.79ZM13.32 12.7L14.184 12.1966L13.8947 11.7H13.32V12.7ZM22.2 27.94L21.336 28.4434L22.2 29.9263L23.064 28.4434L22.2 27.94ZM31.08 12.7V11.7H30.5053L30.216 12.1966L31.08 12.7ZM32.61 12.7H33.61V11.7H32.61V12.7ZM32.61 34V35H33.61V34H32.61ZM31.08 34H32.08V15.67H31.08H30.08V34H31.08ZM31.08 15.67L30.2164 15.1659L21.8464 29.5059L22.71 30.01L23.5736 30.5141L31.9436 16.1741L31.08 15.67ZM22.71 30.01V29.01H21.69V30.01V31.01H22.71V30.01ZM21.69 30.01L22.5536 29.5059L14.1836 15.1659L13.32 15.67L12.4564 16.1741L20.8264 30.5141L21.69 30.01ZM13.32 15.67H12.32V34H13.32H14.32V15.67H13.32ZM13.32 34V33H11.79V34V35H13.32V34ZM11.79 34H12.79V12.7H11.79H10.79V34H11.79ZM11.79 12.7V13.7H13.32V12.7V11.7H11.79V12.7ZM13.32 12.7L12.456 13.2034L21.336 28.4434L22.2 27.94L23.064 27.4366L14.184 12.1966L13.32 12.7ZM22.2 27.94L23.064 28.4434L31.944 13.2034L31.08 12.7L30.216 12.1966L21.336 27.4366L22.2 27.94ZM31.08 12.7V13.7H32.61V12.7V11.7H31.08V12.7ZM32.61 12.7H31.61V34H32.61H33.61V12.7H32.61ZM32.61 34V33H31.08V34V35H32.61V34Z" fill="#DE0202" mask="url(#path-2-outside-1_13239_2181)"/>
</svg>
